<svg width="41" height="45" viewBox="0 0 41 45" fill="none" xmlns="http://www.w3.org/2000/svg">
<path d="M0.290039 37.134C0.290039 44.534 3.42504 45.834 7.62404 42.672L26.4901 28.094C28.8971 26.286 29.905 24.421 29.905 22.556H0.346039V37.134H0.290039Z" fill="#009E96"/>
<path d="M40.7097 37.134C40.7097 44.534 37.5747 45.834 33.3757 42.672L14.5097 28.094C12.1027 26.286 11.0947 24.421 11.0947 22.556H40.6537L40.7097 37.134Z" fill="#EF4923"/>
<path d="M40.7104 7.86401C40.7104 0.464005 37.5754 -0.835989 33.3764 2.32601L14.5664 16.961C12.1594 18.769 11.1514 20.634 11.1514 22.499H40.7104V7.86401Z" fill="#F7961C"/>
<path d="M0.290039 7.86401C0.290039 0.464005 3.42504 -0.835989 7.62404 2.32601L26.4901 16.905C28.8971 18.713 29.905 20.578 29.905 22.443H0.346039V7.86401H0.290039Z" fill="#082E4D"/>
</svg>
