<svg width="87" height="127" viewBox="0 0 87 127" fill="none" xmlns="http://www.w3.org/2000/svg">
<path d="M81.2913 105.327L81.2891 105.325L71.9349 98.0473L62.5774 105.325L53.2198 98.0473L43.8622 105.325L34.5046 98.0473L25.1483 105.325L15.7919 98.0473L6.43774 105.323L6.43555 0.772789L15.7931 8.04948L25.1507 0.77066L34.5071 8.04948L43.8646 0.77066L53.2222 8.04948L62.5798 0.77066L71.9362 8.04948L81.2913 0.771629V105.324V105.327Z" fill="#7978DE"/>
<line x1="19.6787" y1="22.0812" x2="68.0458" y2="22.0812" stroke="#BCBBEE" stroke-width="2" stroke-linecap="round"/>
<line x1="19.6787" y1="41.2511" x2="68.0458" y2="41.2511" stroke="#BCBBEE" stroke-width="2" stroke-linecap="round"/>
<line x1="19.6787" y1="59.1398" x2="68.0458" y2="59.1398" stroke="#BCBBEE" stroke-width="2" stroke-linecap="round"/>
<line x1="19.6787" y1="77.882" x2="44.8881" y2="77.882" stroke="#BCBBEE" stroke-width="2" stroke-linecap="round"/>
<path d="M12.0371 114.079C2.4564 113.415 -3.75728 121.591 4.27549 125.486C12.3083 129.376 70.6365 122.447 80.129 123.771C89.6215 125.095 89.3632 117.857 72.4246 114.079C55.486 110.298 21.6179 114.74 12.0371 114.079Z" fill="#DDDDF6"/>
</svg>
