<svg width="90" height="91" viewBox="0 0 90 91" fill="none" xmlns="http://www.w3.org/2000/svg">
    <path
        d="M44.871 0.812501C35.9964 0.812501 27.321 3.44414 19.942 8.37463C12.563 13.3051 6.8118 20.313 3.41562 28.5121C0.0194423 36.7112 -0.869154 45.7333 0.862204 54.4374C2.59356 63.1415 6.86711 71.1368 13.1424 77.4121C19.4178 83.6874 27.413 87.961 36.1171 89.6923C44.8212 91.4237 53.8433 90.5351 62.0424 87.1389C70.2415 83.7427 77.2494 77.9915 82.1799 70.6125C87.1104 63.2335 89.742 54.5581 89.742 45.6835C89.7429 39.7907 88.5829 33.9554 86.3283 28.511C84.0736 23.0666 80.7685 18.1197 76.6017 13.9529C72.4348 9.78602 67.4879 6.48088 62.0435 4.22623C56.5991 1.97158 50.7638 0.811581 44.871 0.812501ZM56.24 61.9275L44.871 50.5595L33.502 61.9275C33.1819 62.2477 32.8019 62.5018 32.3836 62.6751C31.9653 62.8485 31.517 62.9378 31.0642 62.9379C30.6115 62.9379 30.1631 62.8489 29.7447 62.6757C29.3264 62.5025 28.9462 62.2486 28.626 61.9285C28.3058 61.6084 28.0517 61.2284 27.8784 60.8101C27.705 60.3918 27.6158 59.9435 27.6157 59.4907C27.6156 59.0379 27.7047 58.5896 27.8778 58.1712C28.051 57.7529 28.3049 57.3727 28.625 57.0525L39.996 45.6835L28.625 34.3145C27.9783 33.6678 27.615 32.7906 27.615 31.876C27.615 30.9614 27.9783 30.0842 28.625 29.4375C29.2718 28.7908 30.1489 28.4274 31.0635 28.4274C31.9781 28.4274 32.8553 28.7908 33.502 29.4375L44.871 40.8085L56.24 29.4375C56.8865 28.791 57.7633 28.4279 58.6775 28.4279C59.5918 28.4279 60.4686 28.791 61.115 29.4375C61.7615 30.084 62.1247 30.9608 62.1247 31.875C62.1247 32.7892 61.7615 33.666 61.115 34.3125L49.747 45.6835L61.115 57.0525C61.7576 57.701 62.1181 58.577 62.1181 59.49C62.1181 60.403 61.7576 61.279 61.115 61.9275C60.7964 62.2503 60.4169 62.5065 59.9985 62.6814C59.58 62.8564 59.131 62.9464 58.6775 62.9464C58.224 62.9464 57.775 62.8564 57.3566 62.6814C56.9381 62.5065 56.5586 62.2503 56.24 61.9275Z"
        fill="#FF3344" />
</svg>
