<svg width="63" height="64" viewBox="0 0 63 64" fill="none" xmlns="http://www.w3.org/2000/svg">
<path id="Icon ionic-ios-close-circle" d="M31.4688 0.8125C14.0853 0.8125 0 14.8978 0 32.2813C0 49.6647 14.0853 63.75 31.4688 63.75C48.8522 63.75 62.9375 49.6647 62.9375 32.2813C62.9375 14.8978 48.8522 0.8125 31.4688 0.8125ZM39.4419 43.6735L31.4688 35.7005L23.4957 43.6735C22.5576 44.6116 21.0145 44.6116 20.0765 43.6735C19.6075 43.2045 19.3654 42.5843 19.3654 41.9639C19.3654 41.3437 19.6075 40.7234 20.0765 40.2544L28.0495 32.2813L20.0765 24.3082C19.6074 23.8392 19.3654 23.2189 19.3654 22.5986C19.3654 21.9783 19.6074 21.358 20.0765 20.889C21.0145 19.9509 22.5576 19.9509 23.4957 20.889L31.4687 28.862L39.4418 20.889C40.3798 19.9509 41.923 19.9509 42.861 20.889C43.7991 21.827 43.7991 23.3701 42.861 24.3082L34.888 32.2813L42.861 40.2544C43.7991 41.1924 43.7991 42.7355 42.861 43.6735C41.923 44.6267 40.3799 44.6267 39.4419 43.6735Z" fill="#ED1B2E"/>
</svg>
