<svg width="80" height="79" viewBox="0 0 80 79" fill="none" xmlns="http://www.w3.org/2000/svg">
<g id="Group 37037">
<path id="Path 31441" d="M59.1582 13.5565C59.1582 23.7339 59.1542 33.9188 59.1462 44.1115C59.114 46.4445 58.7342 48.7596 58.0192 50.9805C56.9056 54.595 55.1607 57.9836 52.8652 60.9895C51.8221 62.3555 50.7058 63.6641 49.5212 64.9095C46.5862 67.9609 43.3219 70.6775 39.7882 73.0095C37.5333 74.5102 35.2007 75.8907 32.8002 77.1455C32.1532 77.4935 31.4812 77.7685 30.8102 78.0925C30.6182 78.1925 30.4262 78.3205 30.2352 78.4405H29.5812C29.3892 78.3205 29.1972 78.1885 29.0062 78.0925C28.3352 77.7685 27.6632 77.4925 27.0162 77.1455C24.6158 75.8907 22.2832 74.5101 20.0282 73.0095C16.4945 70.6775 13.2303 67.9609 10.2952 64.9095C9.11067 63.6641 7.99438 62.3555 6.95124 60.9895C4.65578 57.9836 2.91084 54.595 1.79725 50.9805C1.08233 48.7596 0.702473 46.4445 0.670233 44.1115C0.658233 33.9228 0.654239 23.7379 0.658239 13.5565C0.658239 12.6815 0.670229 12.6815 1.49723 12.3335C6.5679 10.2235 11.6426 8.11385 16.7212 6.00452C20.1372 4.57852 23.5422 3.16352 26.9582 1.72552C27.8332 1.35352 28.7082 0.9585 29.5832 0.5625H30.2302C31.1052 0.9625 31.9802 1.35352 32.8552 1.72552C36.2712 3.16352 39.6762 4.57852 43.0922 6.00452C48.1629 8.11452 53.2376 10.2242 58.3162 12.3335C59.1462 12.6815 59.1582 12.6815 59.1582 13.5565Z" fill="#0362CC"/>
<g id="Clip path group">
<mask id="mask0_3244_11390" style="mask-type:luminance" maskUnits="userSpaceOnUse" x="0" y="0" width="60" height="79">
<g id="clip-path-307">
<path id="Path 31442" d="M59.1582 13.5565C59.1582 23.7339 59.1542 33.9188 59.1462 44.1115C59.114 46.4445 58.7342 48.7596 58.0192 50.9805C56.9056 54.595 55.1607 57.9836 52.8652 60.9895C51.8221 62.3555 50.7058 63.6641 49.5212 64.9095C46.5862 67.9609 43.3219 70.6775 39.7882 73.0095C37.5333 74.5102 35.2007 75.8907 32.8002 77.1455C32.1532 77.4935 31.4812 77.7685 30.8102 78.0925C30.6182 78.1925 30.4262 78.3205 30.2352 78.4405H29.5812C29.3892 78.3205 29.1972 78.1885 29.0062 78.0925C28.3352 77.7685 27.6632 77.4925 27.0162 77.1455C24.6158 75.8907 22.2832 74.5101 20.0282 73.0095C16.4945 70.6775 13.2303 67.9609 10.2952 64.9095C9.11067 63.6641 7.99438 62.3555 6.95124 60.9895C4.65578 57.9836 2.91084 54.595 1.79725 50.9805C1.08233 48.7596 0.702473 46.4445 0.670233 44.1115C0.658233 33.9228 0.654239 23.7379 0.658239 13.5565C0.658239 12.6815 0.670229 12.6815 1.49723 12.3335C6.5679 10.2235 11.6426 8.11385 16.7212 6.00452C20.1372 4.57852 23.5422 3.16352 26.9582 1.72552C27.8332 1.35352 28.7082 0.9585 29.5832 0.5625H30.2302C31.1052 0.9625 31.9802 1.35352 32.8552 1.72552C36.2712 3.16352 39.6762 4.57852 43.0922 6.00452C48.1629 8.11452 53.2376 10.2242 58.3162 12.3335C59.1462 12.6815 59.1582 12.6815 59.1582 13.5565Z" fill="white"/>
</g>
</mask>
<g mask="url(#mask0_3244_11390)">
<g id="Mask Group 52">
<path id="Ellipse 246" d="M59.8741 43.1007C72.6131 43.1007 82.9401 32.7738 82.9401 20.0347C82.9401 7.29575 72.6131 -3.03125 59.8741 -3.03125C47.1351 -3.03125 36.8081 7.29575 36.8081 20.0347C36.8081 32.7738 47.1351 43.1007 59.8741 43.1007Z" fill="#004999"/>
<path id="Rectangle 21220" d="M29.7046 0.5625H0.70459V78.5625H29.7046V0.5625Z" fill="#0055B2"/>
<path id="Path_6549" d="M42.6892 50.1693C42.6834 50.3823 42.6098 50.5878 42.479 50.756C42.3483 50.9242 42.1672 51.0462 41.9622 51.1043H17.5512C17.3355 51.0896 17.1325 50.9972 16.9797 50.8442C16.8269 50.6912 16.7347 50.488 16.7202 50.2723V50.1723C16.8202 49.6533 16.8202 49.1333 16.9282 48.6143C17.0729 47.9034 17.4108 47.2461 17.9048 46.7147C18.3988 46.1834 19.0297 45.7984 19.7282 45.6023L23.4672 44.3563C23.6752 44.2563 24.7132 43.8373 24.9212 43.7333C24.9477 43.7333 24.9732 43.7228 24.9919 43.704C25.0107 43.6853 25.0212 43.6598 25.0212 43.6333C25.7362 43.2095 26.2946 42.5655 26.6129 41.7977C26.9313 41.0299 26.9924 40.1797 26.7872 39.3743C26.6872 39.1663 26.6872 39.0623 26.5792 38.8553C26.0602 38.0243 25.5402 37.2973 24.9172 36.3623C24.7092 36.1543 24.6052 35.8433 24.3982 35.6353C23.3592 35.4273 23.3592 35.4273 23.2552 34.1813C23.1552 33.7663 23.1552 33.3503 23.0472 33.0383C22.8392 32.3113 23.0472 31.7923 23.6702 31.5843V29.6013C23.668 28.9918 23.7967 28.3889 24.0476 27.8334C24.2984 27.2779 24.6656 26.7827 25.1242 26.3813C25.7599 25.8387 26.511 25.4482 27.3202 25.2393C28.0472 25.1393 28.7742 25.0313 29.0862 25.0313C30.3646 24.9325 31.6479 25.1463 32.8252 25.6543C33.2976 25.8932 33.7492 26.1711 34.1752 26.4853C34.9068 27.2339 35.3169 28.2386 35.3182 29.2853V31.4713C35.4569 31.5086 35.5865 31.5737 35.699 31.6628C35.8116 31.7519 35.9048 31.8631 35.9729 31.9895C36.041 32.1159 36.0825 32.2549 36.0949 32.398C36.1074 32.541 36.0904 32.6851 36.0452 32.8213C36.0527 32.8775 36.0477 32.9346 36.0304 32.9886C36.0131 33.0426 35.984 33.092 35.9452 33.1333C35.8452 33.5483 35.8452 33.9643 35.7372 34.3793C35.6372 35.1063 35.4252 35.7293 34.6982 35.6253C33.9712 36.7683 33.3482 37.8063 32.6212 38.7413C32.2756 39.4874 32.1799 40.325 32.3483 41.1298C32.5168 41.9346 32.9404 42.6635 33.5562 43.2083H33.6562C33.8145 43.335 33.9891 43.44 34.1752 43.5203C34.2752 43.5203 35.6292 44.2473 35.8372 44.3513L36.7722 44.6633L39.5722 45.5983C40.2707 45.7944 40.9016 46.1794 41.3956 46.7107C41.8896 47.2421 42.2275 47.8994 42.3722 48.6103L42.6892 50.1693Z" fill="white"/>
<g id="Clip path group_2">
<mask id="mask1_3244_11390" style="mask-type:luminance" maskUnits="userSpaceOnUse" x="14" y="22" width="16" height="32">
<g id="clip-path-308">
<path id="Rectangle 22020" d="M29.5024 22.0039H14.5024V53.0039H29.5024V22.0039Z" fill="white"/>
</g>
</mask>
<g mask="url(#mask1_3244_11390)">
<g id="Mask Group 53">
<path id="Path_6549_2" d="M42.5026 50.1673C42.4968 50.3803 42.4232 50.5858 42.2924 50.754C42.1617 50.9222 41.9806 51.0442 41.7756 51.1023H17.3676C17.1521 51.0876 16.9492 50.9953 16.7964 50.8426C16.6436 50.6898 16.5513 50.4869 16.5366 50.2713V50.1713C16.6366 49.6523 16.6366 49.1323 16.7446 48.6133C16.8893 47.9024 17.2273 47.2451 17.7212 46.7137C18.2152 46.1824 18.8461 45.7974 19.5446 45.6013L23.2836 44.3553C23.4916 44.2553 24.5296 43.8363 24.7376 43.7323C24.7641 43.7323 24.7896 43.7218 24.8083 43.703C24.8271 43.6843 24.8376 43.6588 24.8376 43.6323C25.5524 43.2085 26.1107 42.5647 26.429 41.7971C26.7473 41.0296 26.8086 40.1796 26.6036 39.3743C26.5036 39.1663 26.5036 39.0623 26.3956 38.8553C25.8766 38.0243 25.3566 37.2973 24.7336 36.3623C24.5256 36.1543 24.4216 35.8433 24.2146 35.6353C23.1756 35.4273 23.1756 35.4273 23.0716 34.1813C22.9716 33.7663 22.9716 33.3503 22.8636 33.0383C22.6556 32.3113 22.8636 31.7923 23.4866 31.5843V29.6023C23.4845 28.9928 23.6131 28.3899 23.864 27.8344C24.1148 27.2789 24.482 26.7837 24.9406 26.3823C25.5719 25.8414 26.3176 25.4506 27.1216 25.2393C27.8486 25.1393 28.5756 25.0313 28.8876 25.0313C30.166 24.9325 31.4493 25.1463 32.6266 25.6543C33.099 25.8932 33.5506 26.1711 33.9766 26.4853C34.7082 27.2339 35.1184 28.2386 35.1196 29.2853V31.4723C35.2583 31.5096 35.3879 31.5747 35.5005 31.6638C35.613 31.7529 35.7062 31.8641 35.7743 31.9905C35.8424 32.1169 35.8839 32.2559 35.8963 32.399C35.9088 32.542 35.8919 32.6861 35.8466 32.8223C35.8541 32.8785 35.8491 32.9356 35.8318 32.9896C35.8145 33.0436 35.7854 33.093 35.7466 33.1343C35.6466 33.5493 35.6466 33.9653 35.5386 34.3803C35.4386 35.1073 35.2266 35.7303 34.4996 35.6263C33.7726 36.7693 33.1496 37.8073 32.4226 38.7423C32.0772 39.4882 31.9816 40.3257 32.1501 41.1303C32.3185 41.9348 32.742 42.6636 33.3576 43.2083H33.4576C33.6159 43.335 33.7905 43.44 33.9766 43.5203C34.0766 43.5203 35.4306 44.2473 35.6386 44.3513L36.5736 44.6633L39.3736 45.5983C40.0721 45.7944 40.703 46.1794 41.197 46.7107C41.691 47.2421 42.0289 47.8994 42.1736 48.6103L42.5026 50.1673Z" fill="#F2F2F2"/>
</g>
</g>
</g>
</g>
</g>
</g>
<path id="Ellipse 246_2" d="M59.8738 39.5025C70.6268 39.5025 79.3438 30.7855 79.3438 20.0325C79.3438 9.27952 70.6268 0.5625 59.8738 0.5625C49.1208 0.5625 40.4038 9.27952 40.4038 20.0325C40.4038 30.7855 49.1208 39.5025 59.8738 39.5025Z" fill="#00CC8E"/>
<path id="Path 9487" d="M52.8647 22.0303L57.2983 26.2178L67.3979 14.5859" stroke="white" stroke-width="2" stroke-linecap="round" stroke-linejoin="round"/>
</g>
</svg>
