<svg width="79" height="78" viewBox="0 0 79 78" fill="none" xmlns="http://www.w3.org/2000/svg">
<g id="Group 37037">
<path id="Path 31441" d="M58.5015 12.994C58.5015 23.1714 58.4975 33.3563 58.4895 43.549C58.4573 45.882 58.0774 48.1971 57.3625 50.418C56.2489 54.0325 54.504 57.4211 52.2085 60.427C51.1653 61.793 50.0491 63.1016 48.8645 64.347C45.9295 67.3984 42.6652 70.115 39.1315 72.447C36.8765 73.9477 34.544 75.3282 32.1435 76.583C31.4965 76.931 30.8245 77.206 30.1535 77.53C29.9615 77.63 29.7695 77.758 29.5785 77.878H28.9245C28.7325 77.758 28.5405 77.626 28.3495 77.53C27.6785 77.206 27.0065 76.93 26.3595 76.583C23.959 75.3282 21.6265 73.9476 19.3715 72.447C15.8378 70.115 12.5735 67.3984 9.63849 64.347C8.45394 63.1016 7.33764 61.793 6.2945 60.427C3.99904 57.4211 2.2541 54.0325 1.14051 50.418C0.42559 48.1971 0.0457347 45.882 0.0134944 43.549C0.00149444 33.3603 -0.00249897 23.1754 0.00150103 12.994C0.00150103 12.119 0.0134903 12.119 0.84049 11.771C5.91116 9.661 10.9858 7.55135 16.0645 5.44202C19.4805 4.01602 22.8855 2.60102 26.3015 1.16302C27.1765 0.791025 28.0515 0.396 28.9265 0H29.5735C30.4485 0.4 31.3235 0.791025 32.1985 1.16302C35.6145 2.60102 39.0195 4.01602 42.4355 5.44202C47.5062 7.55202 52.5808 9.66166 57.6595 11.771C58.4895 12.119 58.5015 12.119 58.5015 12.994Z" fill="#0362CC"/>
<g id="Clip path group">
<mask id="mask0_3244_10381" style="mask-type:luminance" maskUnits="userSpaceOnUse" x="0" y="0" width="59" height="78">
<g id="clip-path-307">
<path id="Path 31442" d="M58.5015 12.994C58.5015 23.1714 58.4975 33.3563 58.4895 43.549C58.4573 45.882 58.0774 48.1971 57.3625 50.418C56.2489 54.0325 54.504 57.4211 52.2085 60.427C51.1653 61.793 50.0491 63.1016 48.8645 64.347C45.9295 67.3984 42.6652 70.115 39.1315 72.447C36.8765 73.9477 34.544 75.3282 32.1435 76.583C31.4965 76.931 30.8245 77.206 30.1535 77.53C29.9615 77.63 29.7695 77.758 29.5785 77.878H28.9245C28.7325 77.758 28.5405 77.626 28.3495 77.53C27.6785 77.206 27.0065 76.93 26.3595 76.583C23.959 75.3282 21.6265 73.9476 19.3715 72.447C15.8378 70.115 12.5735 67.3984 9.63849 64.347C8.45394 63.1016 7.33764 61.793 6.2945 60.427C3.99904 57.4211 2.2541 54.0325 1.14051 50.418C0.42559 48.1971 0.0457347 45.882 0.0134944 43.549C0.00149444 33.3603 -0.00249897 23.1754 0.00150103 12.994C0.00150103 12.119 0.0134903 12.119 0.84049 11.771C5.91116 9.661 10.9858 7.55135 16.0645 5.44202C19.4805 4.01602 22.8855 2.60102 26.3015 1.16302C27.1765 0.791025 28.0515 0.396 28.9265 0H29.5735C30.4485 0.4 31.3235 0.791025 32.1985 1.16302C35.6145 2.60102 39.0195 4.01602 42.4355 5.44202C47.5062 7.55202 52.5808 9.66166 57.6595 11.771C58.4895 12.119 58.5015 12.119 58.5015 12.994Z" fill="white"/>
</g>
</mask>
<g mask="url(#mask0_3244_10381)">
<g id="Mask Group 52">
<path id="Ellipse 246" d="M59.2174 42.5382C71.9564 42.5382 82.2834 32.2113 82.2834 19.4722C82.2834 6.73325 71.9564 -3.59375 59.2174 -3.59375C46.4784 -3.59375 36.1514 6.73325 36.1514 19.4722C36.1514 32.2113 46.4784 42.5382 59.2174 42.5382Z" fill="#004999"/>
<path id="Rectangle 21220" d="M29.0479 0H0.0478516V78H29.0479V0Z" fill="#0055B2"/>
<path id="Path_6549" d="M42.0325 49.6068C42.0267 49.8198 41.9531 50.0253 41.8223 50.1935C41.6915 50.3617 41.5105 50.4837 41.3055 50.5418H16.8945C16.6788 50.5271 16.4757 50.4347 16.3229 50.2817C16.1701 50.1287 16.078 49.9255 16.0635 49.7098V49.6098C16.1635 49.0908 16.1635 48.5708 16.2715 48.0518C16.4162 47.3409 16.7541 46.6836 17.2481 46.1522C17.7421 45.6209 18.373 45.2359 19.0715 45.0398L22.8105 43.7938C23.0185 43.6938 24.0565 43.2748 24.2645 43.1708C24.291 43.1708 24.3164 43.1603 24.3352 43.1415C24.3539 43.1228 24.3645 43.0973 24.3645 43.0708C25.0794 42.647 25.6378 42.003 25.9562 41.2352C26.2746 40.4674 26.3357 39.6172 26.1305 38.8118C26.0305 38.6038 26.0305 38.4998 25.9225 38.2928C25.4035 37.4618 24.8835 36.7348 24.2605 35.7998C24.0525 35.5918 23.9485 35.2808 23.7415 35.0728C22.7025 34.8648 22.7025 34.8648 22.5985 33.6188C22.4985 33.2038 22.4985 32.7878 22.3905 32.4758C22.1825 31.7488 22.3905 31.2298 23.0135 31.0218V29.0388C23.0113 28.4293 23.14 27.8264 23.3908 27.2709C23.6417 26.7154 24.0088 26.2202 24.4675 25.8188C25.1032 25.2762 25.8542 24.8857 26.6635 24.6768C27.3905 24.5768 28.1175 24.4688 28.4295 24.4688C29.7079 24.37 30.9912 24.5838 32.1685 25.0918C32.6409 25.3307 33.0925 25.6086 33.5185 25.9228C34.25 26.6714 34.6602 27.6761 34.6615 28.7228V30.9088C34.8001 30.9461 34.9297 31.0112 35.0423 31.1003C35.1549 31.1894 35.2481 31.3006 35.3161 31.427C35.3842 31.5534 35.4257 31.6924 35.4382 31.8355C35.4506 31.9785 35.4337 32.1226 35.3885 32.2588C35.396 32.315 35.3909 32.3721 35.3736 32.4261C35.3563 32.4801 35.3272 32.5295 35.2885 32.5708C35.1885 32.9858 35.1885 33.4018 35.0805 33.8168C34.9805 34.5438 34.7685 35.1668 34.0415 35.0628C33.3145 36.2058 32.6915 37.2438 31.9645 38.1788C31.6188 38.9249 31.5231 39.7625 31.6916 40.5673C31.86 41.3721 32.2836 42.101 32.8995 42.6458H32.9995C33.1578 42.7725 33.3323 42.8775 33.5185 42.9578C33.6185 42.9578 34.9725 43.6848 35.1805 43.7888L36.1155 44.1008L38.9155 45.0358C39.614 45.2319 40.2449 45.6169 40.7389 46.1482C41.2328 46.6796 41.5708 47.3369 41.7155 48.0478L42.0325 49.6068Z" fill="white"/>
<g id="Clip path group_2">
<mask id="mask1_3244_10381" style="mask-type:luminance" maskUnits="userSpaceOnUse" x="13" y="21" width="16" height="32">
<g id="clip-path-308">
<path id="Rectangle 22020" d="M28.8457 21.4414H13.8457V52.4414H28.8457V21.4414Z" fill="white"/>
</g>
</mask>
<g mask="url(#mask1_3244_10381)">
<g id="Mask Group 53">
<path id="Path_6549_2" d="M41.8459 49.6048C41.8401 49.8178 41.7665 50.0233 41.6357 50.1915C41.5049 50.3597 41.3239 50.4817 41.1189 50.5398H16.7109C16.4953 50.5251 16.2924 50.4328 16.1397 50.2801C15.9869 50.1273 15.8946 49.9244 15.8799 49.7088V49.6088C15.9799 49.0898 15.9799 48.5698 16.0879 48.0508C16.2326 47.3399 16.5705 46.6826 17.0645 46.1512C17.5585 45.6199 18.1894 45.2349 18.8879 45.0388L22.6269 43.7928C22.8349 43.6928 23.8729 43.2738 24.0809 43.1698C24.1074 43.1698 24.1328 43.1593 24.1516 43.1405C24.1703 43.1218 24.1809 43.0963 24.1809 43.0698C24.8956 42.646 25.4539 42.0022 25.7723 41.2346C26.0906 40.4671 26.1519 39.6171 25.9469 38.8118C25.8469 38.6038 25.8469 38.4998 25.7389 38.2928C25.2199 37.4618 24.6999 36.7348 24.0769 35.7998C23.8689 35.5918 23.7649 35.2808 23.5579 35.0728C22.5189 34.8648 22.5189 34.8648 22.4149 33.6188C22.3149 33.2038 22.3149 32.7878 22.2069 32.4758C21.9989 31.7488 22.2069 31.2298 22.8299 31.0218V29.0398C22.8277 28.4303 22.9564 27.8274 23.2072 27.2719C23.4581 26.7164 23.8252 26.2212 24.2839 25.8198C24.9152 25.2789 25.6608 24.8881 26.4649 24.6768C27.1919 24.5768 27.9189 24.4688 28.2309 24.4688C29.5093 24.37 30.7926 24.5838 31.9699 25.0918C32.4423 25.3307 32.8939 25.6086 33.3199 25.9228C34.0515 26.6714 34.4616 27.6761 34.4629 28.7228V30.9098C34.6015 30.9471 34.7311 31.0122 34.8437 31.1013C34.9563 31.1904 35.0495 31.3016 35.1175 31.428C35.1856 31.5544 35.2272 31.6934 35.2396 31.8365C35.252 31.9795 35.2351 32.1236 35.1899 32.2598C35.1974 32.316 35.1923 32.3731 35.175 32.4271C35.1577 32.4811 35.1286 32.5305 35.0899 32.5718C34.9899 32.9868 34.9899 33.4028 34.8819 33.8178C34.7819 34.5448 34.5699 35.1678 33.8429 35.0638C33.1159 36.2068 32.4929 37.2448 31.7659 38.1798C31.4205 38.9257 31.3249 39.7632 31.4933 40.5678C31.6618 41.3723 32.0853 42.1011 32.7009 42.6458H32.8009C32.9592 42.7725 33.1337 42.8775 33.3199 42.9578C33.4199 42.9578 34.7739 43.6848 34.9819 43.7888L35.9169 44.1008L38.7169 45.0358C39.4154 45.2319 40.0463 45.6169 40.5403 46.1482C41.0343 46.6796 41.3722 47.3369 41.5169 48.0478L41.8459 49.6048Z" fill="#F2F2F2"/>
</g>
</g>
</g>
</g>
</g>
</g>
<path id="Ellipse 246_2" d="M59.2168 38.94C69.9698 38.94 78.6868 30.223 78.6868 19.47C78.6868 8.71702 69.9698 0 59.2168 0C48.4638 0 39.7468 8.71702 39.7468 19.47C39.7468 30.223 48.4638 38.94 59.2168 38.94Z" fill="#FF9500"/>
<path id="Line 2131" d="M50.7168 19.9414H67.7168" stroke="white" stroke-width="2" stroke-linecap="round"/>
</g>
</svg>
